<svg width="808" height="149" viewBox="0 0 808 149" fill="none" xmlns="http://www.w3.org/2000/svg">
<path d="M130.813 14.9122C130.809 14.7462 130.778 14.5801 130.726 14.4245C130.671 14.2653 130.591 14.1131 130.487 13.9782L127.775 10.415L127.101 9.474C126.91 9.21109 126.672 8.9966 126.409 8.81671C126.153 8.62644 125.873 8.47077 125.561 8.37736L124.451 8.04526L120.199 6.64072C120.036 6.58883 119.867 6.56116 119.701 6.56116C119.535 6.56116 119.369 6.58537 119.21 6.63727L113.668 8.4085C113.114 8.58493 112.63 8.93433 112.284 9.40136L109.063 13.7879C108.717 14.2584 108.53 14.8223 108.527 15.4069L108.496 21.2257C108.496 21.3676 108.523 21.5059 108.558 21.6443C108.015 21.7066 107.413 21.9003 107.036 22.4296L106.873 22.651L106.673 22.9278L106.624 22.9831C106.223 23.4571 105.659 24.3358 105.427 25.0761C105.275 25.5708 105.573 27.2175 105.573 27.2175C104.981 28.5078 103.964 30.5385 102.047 32.7906C99.5116 35.7692 92.444 41.5637 92.444 41.5637C90.8596 40.7093 86.4834 38.6094 80.2806 37.7134C78.7515 37.492 77.2778 37.3778 75.901 37.3778C71.0647 37.3675 68.8022 38.7166 68.7088 38.7754C68.5531 38.8723 68.4251 39.0072 68.3352 39.1664L65.5676 44.231C65.3704 44.5942 65.405 45.037 65.6541 45.3657C65.8547 45.6286 66.1626 45.7808 66.4844 45.7808C66.5639 45.7808 66.6435 45.7704 66.7231 45.7531C66.7611 45.7462 70.5734 44.8744 74.6279 44.8813C75.254 44.8813 75.8594 44.9056 76.4302 44.9471C78.8138 45.127 81.7924 45.549 84.2036 47.1923C84.4389 47.3548 85.0512 47.6731 85.2345 47.8945C89.2786 52.7204 82.0657 59.072 75.5308 57.1105C74.9565 56.9375 74.3477 56.9721 74.0398 57.4875C73.2787 58.7537 71.85 61.1926 70.0268 64.3165C70.563 65.2851 70.9643 66.2261 71.2722 67.1428C72.995 64.1816 74.1263 62.2373 74.2923 61.9433C74.7732 61.0923 74.9185 60.8051 74.9185 60.8051C74.9185 60.8051 79.3154 64.8423 79.0906 65.1986L72.7183 74.8297C72.8705 75.6323 73.0711 76.4072 73.3652 77.1579L80.7234 66.4752C80.9725 66.0946 81.2631 65.9147 81.7163 65.9632L85.0788 65.5169C85.2068 65.5307 85.5597 65.7279 85.8918 65.9355C86.2897 66.2399 86.7705 66.6343 86.8328 66.7692L87.2929 69.094C87.4832 69.5506 87.4036 70.0764 87.0888 70.4604L77.5234 81.9873C81.8927 84.869 86.3069 84.4608 89.3097 83.5579C93.0459 79.1575 96.0487 75.615 97.3183 74.1032C97.6712 73.6846 97.5916 73.0861 97.1903 72.7125C91.209 67.2086 97.5501 58.6257 103.448 60.8882C103.715 60.992 104.216 61.4659 104.448 61.6354C106.783 63.379 108.153 66.06 109.098 68.2568C109.323 68.7826 109.541 69.3465 109.748 69.9381C111.077 73.7677 111.492 77.6561 111.495 77.6976C111.502 77.7771 111.523 77.8567 111.547 77.9328C111.651 78.2372 111.893 78.4829 112.208 78.5832C112.599 78.7112 113.031 78.6005 113.308 78.2961L117.2 74.034C117.324 73.8991 117.411 73.7331 117.449 73.5532C117.473 73.4459 118.013 70.8652 116.428 66.2953C115.979 64.9945 115.39 63.635 114.685 62.2616C111.82 56.6884 108.409 53.2324 107.088 52.0113C107.088 52.0113 110.087 42.996 112.111 39.6472C113.841 36.7793 114.858 35.5443 115.788 34.4996C115.788 34.4996 117.442 34.247 117.86 33.9391C118.487 33.4825 119.134 32.6592 119.448 32.1264L119.486 32.0607L119.684 31.7805L119.839 31.5556C120.216 31.0263 120.206 30.3932 120.085 29.8605C120.227 29.8501 120.365 29.8328 120.5 29.7844L125.99 27.8644C126.54 27.6706 127.014 27.3109 127.346 26.8335L130.446 22.3604C130.778 21.883 130.948 21.3122 130.937 20.7276L130.809 14.9122H130.813ZM85.743 61.6665C85.7361 61.7081 85.7292 61.7461 85.7189 61.7842L85.4421 63.3236L82.3113 63.8252C81.8477 63.801 81.2735 63.7145 81.0901 63.289L76.8558 59.4698C76.8558 59.4698 81.4153 60.3693 84.0479 58.3559C85.75 57.0551 86.3727 56.4774 86.3727 56.4774C86.2931 58.6603 85.8088 61.2514 85.743 61.6631V61.6665ZM119.175 8.36352C119.407 8.28396 119.656 8.27704 119.888 8.34623L123.966 9.57087L124.582 9.77498C124.53 9.86146 123.506 11.5497 123.361 11.5773L116.297 11.6189C116.165 11.6189 115.11 10.3181 114.778 9.90297L119.175 8.36352ZM110.371 15.0645L113.221 10.9512C113.221 10.9512 114.813 12.5252 114.872 12.6878L112.737 19.3888C112.702 19.5029 110.807 19.9526 110.264 20.0806L110.167 15.7494C110.16 15.5073 110.232 15.2651 110.371 15.0645ZM97.0104 58.1621C97.8061 58.6638 98.2109 59.494 98.076 59.8919C95.1666 59.3453 91.9147 61.4521 90.4168 62.0021C90.1158 62.1128 88.9603 62.6559 88.5279 62.4311C88.1716 62.1266 88.4137 60.947 88.4241 60.5768C88.4552 58.9786 89.3893 55.2182 87.9294 52.6478C88.2615 52.3918 89.1783 52.5025 89.9117 53.0941C90.1123 53.2567 89.8425 50.5237 87.6803 49.2333C87.6803 49.2333 89.2336 48.7386 90.2127 49.6796C91.5826 50.9942 92.9422 52.5994 93.3262 55.9515C96.9205 55.6506 98.4496 55.7924 100.148 56.768C101.335 57.4495 101.394 59.0166 101.394 59.0166C99.4701 57.3907 96.7994 58.0272 97.0174 58.1621H97.0104ZM108.987 55.5433C110.066 56.8683 111.063 58.2175 111.924 59.5563C112.052 59.7535 112.173 59.9472 112.294 60.1409C112.433 60.3623 112.561 60.5837 112.689 60.8051C112.803 60.9989 112.92 61.1926 113.024 61.3829C113.273 61.8326 113.505 62.2789 113.713 62.7148C115.47 66.4267 116.196 69.1009 116.432 70.8548C116.536 71.6366 116.542 72.2351 116.497 72.6606C116.494 72.7056 116.491 72.7506 116.484 72.7921C116.439 73.1 116.297 73.3871 116.082 73.612L114.328 75.276C114.159 75.4524 114.398 68.5059 114.384 68.2637C114.283 66.323 112.339 66.8107 108.731 61.3656C107.06 58.8402 104.587 51.5788 94.5196 54.3671C93.8831 43.9404 85.9956 43.8124 83.0654 43.0513C76.7416 41.4115 76.5686 39.412 74.704 39.9482C74.4687 40.0174 67.9788 42.5013 68.0895 42.2833L69.0928 40.0831C69.2346 39.8064 69.4595 39.578 69.7362 39.4362C69.7708 39.4189 69.8158 39.3981 69.8573 39.3808C70.2448 39.1975 70.8121 39.0107 71.587 38.855C73.3237 38.5056 76.0878 38.3257 80.1699 38.7789C80.6508 38.8343 81.1489 38.9069 81.654 38.9968C81.8685 39.0349 82.0899 39.0833 82.3113 39.1283C82.5604 39.1767 82.8129 39.2286 83.0654 39.2874C83.2903 39.3393 83.5117 39.3912 83.74 39.4466C85.283 39.8271 86.8847 40.3287 88.4898 40.9203C89.9186 41.4461 91.3404 42.0446 92.7208 42.6811C93.1082 42.861 93.4956 43.0375 93.8727 43.2208C94.6961 43.6221 95.8965 44.0995 96.9966 44.5146L94.3259 42.3317L95.8827 40.8615L99.311 43.3211L100.235 43.9819L100.927 44.4801L106.645 48.5414L105.763 50.4891L102.829 48.6729C103.576 49.5758 104.421 50.5583 105.067 51.2052C105.365 51.5027 105.659 51.8106 105.953 52.1185C107.005 53.2151 108.029 54.3671 108.994 55.5468L108.987 55.5433ZM117.975 30.964L117.373 31.822C117.324 31.8912 117.048 32.1921 116.875 32.2509C116.404 32.4135 115.363 32.1091 115.328 32.1575L114.484 33.3234C114.346 33.524 114.069 33.569 113.872 33.4272L109.97 30.5281L109.928 30.5766L107.216 28.6773C107.015 28.5355 106.97 28.2622 107.115 28.065L107.942 26.8854C107.977 26.8369 107.354 25.9513 107.354 25.4531C107.354 25.2698 107.551 24.91 107.6 24.8443L108.216 23.9933C108.389 23.7546 108.724 23.6992 108.966 23.8722L110.955 25.2836L113.1 26.8092L113.726 27.2555L115.868 28.788L117.85 30.2099C118.092 30.3828 118.148 30.7184 117.978 30.9606L117.975 30.964ZM114.878 24.9792L110.609 21.9141C110.796 21.8484 113.214 21.0251 113.342 21.1185L116.193 23.1388L119.033 25.1764C119.161 25.2698 119.168 27.8229 119.168 28.02L114.882 24.9792H114.878ZM119.566 23.6404C119.469 23.6058 119.372 23.5643 119.282 23.502L117.058 21.9245L114.844 20.3332C114.757 20.2709 114.685 20.1913 114.619 20.1118C114.415 19.8246 114.346 19.451 114.453 19.0982L116.058 13.9574C116.207 13.48 116.646 13.1514 117.148 13.1479L122.534 13.0857C122.783 13.0857 123.018 13.1618 123.212 13.2967C123.402 13.4351 123.555 13.6322 123.631 13.8675L125.326 18.9805C125.482 19.4545 125.316 19.9769 124.914 20.2744L120.576 23.4674C120.279 23.6854 119.905 23.7407 119.566 23.6404ZM125.72 26.017C125.575 26.2142 125.374 26.3595 125.139 26.4322L121.012 27.7502C120.957 27.1932 120.766 25.256 120.86 25.1868L126.502 20.987C126.679 20.987 128.682 21.9799 128.682 21.9799L125.717 26.0136L125.72 26.017ZM129.169 20.1706C128.668 19.9907 127.094 19.4164 127.052 19.2919L124.793 12.5979C124.769 12.4491 126.035 10.9339 126.097 10.8543L126.492 11.3698L128.976 14.8258C129.117 15.0229 129.194 15.2616 129.194 15.5073L129.169 20.1671V20.1706Z" fill="#201B50"/>
<path d="M47.9381 117.869L35.5533 134.339L32.0662 138.587C31.9901 138.587 32.4709 136.46 33.4811 134.121C35.3111 129.89 39.1442 122.639 42.742 116.592C43.0187 116.125 44.1984 113.814 45.3504 111.597C44.9491 110.846 44.5063 110.085 44.0358 109.324C42.4306 112.14 40.8116 114.963 40.5037 115.468C37.6912 120.083 33.104 129.025 31.1909 133.467C27.4859 142.074 27.2126 148.26 27.5412 148.495C27.8699 148.73 32.6301 146.132 37.7985 141.375C40.099 139.21 44.7381 134.668 48.6438 130.62C49.353 126.375 49.1973 122.182 47.9346 117.869H47.9381Z" fill="#201B50"/>
<path d="M50.7194 134.671C50.7194 134.671 57.5968 128.825 50.4012 114.437C44.6204 102.875 38.428 98.4403 35.28 95.4929C29.7449 90.3072 25.1542 84.9797 24.8601 84.2324C23.0405 79.6452 26.7386 70.3047 27.9944 63.9394C30.2741 52.3606 18.429 44.4627 13.1776 57.5567C9.35492 67.0909 -5.80779 38.9933 2.40145 22.388C5.35235 16.4205 15.8587 11.7122 25.9395 15.3273C25.9395 15.3273 22.3832 16.3928 20.0688 20.2155C14.25 29.8293 25.2683 41.453 26.9116 42.9025C35.8508 50.7969 38.7913 54.1388 38.1963 60.8432C37.8987 64.185 35.1589 69.7305 45.1221 79.3339C50.8197 84.8274 62.0629 95.6832 66.2731 106.359C69.1894 113.748 68.3902 122.331 65.6192 126.185C62.8517 130.039 60.5062 132.253 58.0603 133.668C52.2727 137.013 50.716 134.674 50.716 134.674L50.7194 134.671ZM59.7555 13.4246C57.3615 12.0478 56.0573 11.3075 56.1369 10.235C56.2476 8.7544 59.7866 8.06597 59.3888 6.32587C57.8597 -0.295489 49.9895 0.0020227 49.9895 0.0020227C49.9895 0.0020227 52.2796 2.35444 51.4667 3.48914C50.6537 4.62383 46.6857 4.34362 43.7452 3.96654C40.8047 3.58946 38.8224 4.31594 39.1303 6.32242C39.4382 8.32889 42.2715 8.71635 45.6341 12.1619C48.9966 15.6075 44.9214 15.9985 41.2924 16.1749C37.6635 16.3513 33.2354 16.2787 29.6134 19.8315C27.0119 22.3846 23.4833 26.695 29.6653 37.229C39.7738 54.4501 51.9683 53.8274 55.9535 64.6589C56.6627 66.5824 56.6212 69.1908 54.2965 69.3049C52.5737 69.3914 48.8202 65.1744 48.0868 61.0576C46.3571 60.9815 42.1988 68.0076 46.665 73.0169C52.5702 79.6383 62.2705 86.8962 68.1412 96.51C76.0148 109.403 73.1124 116.35 73.1124 116.35C75.7519 113.897 77.1668 111.773 78.4468 104.622C79.2321 100.232 83.9473 98.0079 87.6074 97.6862C87.7319 97.6758 87.6351 93.1508 93.274 89.6188C96.0934 87.8544 99.3003 88.5048 101.21 89.003C101.587 87.2041 100.833 84.7963 99.9265 83.9487C98.3247 82.4543 94.8964 82.4854 93.0733 83.6893C88.9047 86.4395 79.6369 89.7225 72.7249 84.4642C68.1273 80.9667 68.4006 74.0651 68.3729 69.3326C68.3003 56.6503 59.8074 55.2146 53.5216 52.1046C48.1179 49.4305 40.3031 41.9269 42.1366 33.69C42.652 31.3757 43.51 29.9192 44.6758 29.0198C46.5231 27.598 48.5158 27.7087 58.8733 28.148C62.1875 28.2898 65.0553 28.3763 67.5358 26.83C68.1827 26.4252 69.601 25.5154 70.1788 23.7995C70.2237 23.6646 70.6077 22.478 70.3344 21.2361C69.8086 18.8525 67.176 17.697 59.7555 13.4246Z" fill="url(#paint0_linear_139_35)"/>
<path d="M204.62 56.9745C197.959 51.7756 188.572 49.0299 177.476 49.0299H152V113.71H174.138C186.89 113.71 197.4 110.745 204.534 105.141C211.754 99.4763 215.57 91.1062 215.57 80.9411C215.57 70.7761 211.787 62.5589 204.627 56.9745H204.62ZM177.476 110.08C174.039 110.08 172.609 109.934 171.572 109.635V52.6465H176.957C187.907 52.6465 194.442 63.2836 194.442 81.1073C194.442 94.3239 191.497 110.08 177.469 110.08H177.476Z" fill="#201B50"/>
<path d="M242.934 46.969H241.165L224.312 84.5112C217.977 98.6452 215.377 103.545 210.305 112.008L209.261 113.703H222.77L222.491 112.334C221.407 107.487 221.44 102.608 224.957 93.2669L225.755 91.1993C226.047 90.4746 226.353 89.7301 226.672 88.9855H240.368L251.211 113.185L251.437 113.703H272.857L243.253 47.6205L242.927 46.9756L242.934 46.969ZM233.493 73.6614L238.672 85.1893H228.328L233.493 73.6614Z" fill="#201B50"/>
<path d="M304.376 86.9511H314.428V110.047C312.407 110.605 309.129 110.944 306.982 110.944C296.671 110.944 290.269 99.5428 290.269 81.2004C290.269 61.0232 294.869 51.6293 304.748 51.6293C308.292 51.6293 317.021 53.0188 321.522 65.8831L322.087 67.4919L331.281 59.0886L330.39 58.2576C327.093 55.1728 318.018 48.0061 305.101 48.0061C283.607 48.0061 269.161 61.5883 269.161 81.7988C269.161 102.009 282.849 114.734 306.729 114.734C316.549 114.734 324.221 112.613 331.727 107.793L332.126 107.541V83.1617H302.069L304.383 86.9577L304.376 86.9511Z" fill="#201B50"/>
<path d="M373.969 86.9511H384.028V110.04C382.007 110.599 378.729 110.938 376.575 110.938C366.264 110.938 359.862 99.5361 359.862 81.1938C359.862 61.0166 364.463 51.6227 374.342 51.6227C377.885 51.6227 386.614 53.0122 391.115 65.8698L391.667 67.4919L400.875 59.0819L399.977 58.2509C396.673 55.1662 387.598 47.9995 374.681 47.9995C353.187 47.9995 338.741 61.5817 338.741 81.7921C338.741 102.003 352.436 114.727 376.31 114.727C386.129 114.727 393.801 112.606 401.307 107.786L401.706 107.534V83.155H371.649L373.963 86.9511H373.969Z" fill="#201B50"/>
<path d="M452.537 101.118C446.115 106.955 438.782 109.914 430.745 109.914H428.697V81.9782C438.124 82.0181 443.629 84.1921 444.852 86.3528L445.105 86.7782H447.046V74.0669H445.603L445.038 74.1933L444.785 74.6121C443.728 76.3739 438.35 78.1489 428.697 78.1822V52.8194H430.14C437.692 52.8194 445.105 55.6448 451.088 60.8437L451.327 61.0498H453.189L451.706 49.0233H409.111V113.703H452.324L454.818 100.819H452.85L452.524 101.112L452.537 101.118Z" fill="#201B50"/>
<path d="M513.335 65.4243C513.335 54.395 503.908 49.0299 484.522 49.0299H460.495V113.697H480.061V85.0896C480.712 85.1827 481.271 85.4685 482.062 86.2597L508.249 113.703H532.295L499.134 81.1007C508.428 77.8497 513.328 72.4514 513.328 65.431L513.335 65.4243ZM494.627 66.262C494.627 73.9606 491.509 79.7843 486.676 81.1406L486.563 81.1672C485.851 81.3467 485.133 81.4397 484.442 81.4397C483.358 81.4397 481.51 81.3334 480.074 81.1672V52.6532H483.498C484.362 52.6532 485.186 52.7263 486.017 52.8726C493.144 54.1556 494.64 60.8703 494.64 66.2753L494.627 66.262Z" fill="#201B50"/>
<path d="M741.906 65.4243C741.906 60.0327 739.546 55.9108 734.879 53.185C730.112 50.3928 722.985 49.0299 713.093 49.0299H689.073V111.523L660.446 47.6072L660.12 46.969H658.352L641.498 84.5112C638.593 91.0065 636.439 95.6004 634.538 99.3633C633.275 101.564 631.633 103.465 629.645 105.021C628.707 105.752 627.717 106.39 626.64 106.942C622.478 108.917 618.05 109.914 613.483 109.914H611.435V81.9783C620.862 82.0182 626.374 84.1921 627.577 86.3395L627.83 86.7849H629.784V74.0736H628.342L627.777 74.1999L627.524 74.6187C626.467 76.3805 621.088 78.1556 611.435 78.1888V52.826H612.878C620.43 52.826 627.843 55.6515 633.826 60.8437L634.066 61.0565H635.927L634.451 49.0299H591.856V113.71H636.306L636.459 113.032C637.563 108.165 638.879 103.292 640.375 98.5456C640.947 96.7373 641.538 94.9688 642.137 93.2669L642.934 91.1927C643.081 90.8204 643.247 90.4281 643.413 90.0292C643.553 89.6835 643.706 89.3378 643.859 88.9855H657.547L668.39 113.191L668.616 113.71H708.632V85.1029C709.283 85.196 709.842 85.4819 710.633 86.2664L736.567 113.437L736.82 113.703H760.866L727.705 81.1007C736.999 77.8498 741.899 72.4515 741.899 65.4243H741.906ZM655.858 85.1894H645.507L650.673 73.6614L655.858 85.1894ZM708.638 52.6465H712.062C714.768 52.6465 717.015 53.3113 718.757 54.621C721.662 56.7883 723.204 60.8171 723.204 66.2686C723.204 75.2038 719.009 81.4398 713.013 81.4398C711.929 81.4398 710.081 81.3334 708.645 81.1672V52.6532L708.638 52.6465Z" fill="#201B50"/>
<path d="M563.668 85.196H540.114V49.0299H520.542V93.5461L540.114 112.793V88.9788H563.668V113.703H583.234V49.0299H563.668V85.196Z" fill="#201B50"/>
<path d="M806.147 49.0299H750.788L749.312 61.0565H750.283L751.247 60.99L751.486 60.7772C756.445 56.4692 762.369 53.8099 768.671 53.0454V113.703H788.244V53.0454C794.546 53.8099 800.476 56.4692 805.496 60.8304L805.742 61.0498H807.61L806.134 49.0233L806.147 49.0299Z" fill="#201B50"/>
<defs>
<linearGradient id="paint0_linear_139_35" x1="11.6797" y1="-1.9318" x2="82.2453" y2="113.205" gradientUnits="userSpaceOnUse">
<stop stop-color="#382D7A"/>
<stop offset="0.12" stop-color="#36337F"/>
<stop offset="0.3" stop-color="#324590"/>
<stop offset="0.5" stop-color="#2C63AB"/>
<stop offset="0.61" stop-color="#2878BE"/>
<stop offset="1" stop-color="#81CDC3"/>
</linearGradient>
</defs>
</svg>
